<svg width="35" height="35" viewBox="0 0 35 35" fill="none" xmlns="http://www.w3.org/2000/svg">
<g clip-path="url(#clip0)">
<path style="fill: #E15050" d="M12.5237 6.71756C12.3162 6.92511 12.145 7.1595 12.0087 7.41697C11.9167 7.5908 10.3761 11.4002 10.3761 11.4002C9.19594 14.284 7.48037 16.8633 5.27713 19.0665L4.20069 20.143C1.95845 22.3852 1.92892 26.0144 4.13484 28.2331C5.21098 29.3155 6.64339 29.9114 8.16813 29.9114C8.16965 29.9114 8.17124 29.9114 8.17283 29.9114C9.01777 29.9114 9.83442 29.7277 10.578 29.3802L12.5764 31.3786C12.6824 31.4846 12.8213 31.5375 12.9602 31.5375C13.0878 31.5375 13.215 31.4922 13.3171 31.4029L16.1309 34.2167C16.6534 34.7392 17.3397 35.0005 18.026 35.0005C18.7124 35.0005 19.3987 34.7392 19.9212 34.2167C20.9661 33.1718 20.9661 31.4715 19.9212 30.4266L17.1086 27.614L17.4888 27.2338C17.5906 27.1321 17.6478 26.994 17.6478 26.8501C17.6478 26.7061 17.5906 26.5681 17.4888 26.4663L15.9064 24.8839C17.4679 23.7221 19.1687 22.7616 20.9916 22.0156C20.9916 22.0156 24.7911 20.4871 25.0914 20.3192C25.4063 20.1432 25.6745 19.8683 25.6745 19.8683C27.7316 17.9511 26.3322 13.434 22.6451 9.74693C18.958 6.05976 14.5121 4.7291 12.5237 6.71756ZM11.5406 28.8077C11.7703 28.6382 11.989 28.4506 12.1947 28.2449L13.3251 27.1145C13.4968 26.9428 13.6715 26.7753 13.8476 26.6096L15.2127 27.9748L12.9602 30.2273L11.5406 28.8077ZM16.8985 33.4492L14.086 30.6367L15.1549 29.5677L17.9677 32.3805C18.2688 32.6816 18.4346 33.082 18.4346 33.5078C18.4346 33.5091 18.4346 33.5103 18.4346 33.5115C18.434 33.738 18.2416 33.9153 18.0151 33.914C17.6104 33.9118 17.2066 33.7574 16.8985 33.4492ZM19.1536 31.1942C19.6392 31.6798 19.7437 32.4028 19.4706 32.9926C19.37 32.4732 19.1177 31.9954 18.7353 31.613L15.9225 28.8002L16.341 28.3816L19.1536 31.1942ZM16.3375 26.8501L15.9803 27.2073L14.656 25.883C14.7844 25.7729 14.9135 25.6638 15.0441 25.5568L16.3375 26.8501ZM20.5803 21.0109C17.5625 22.246 14.8632 24.0413 12.5576 26.347L11.4272 27.4774C10.5575 28.3471 9.40189 28.8259 8.1724 28.8259C8.1711 28.8259 8.16979 28.8259 8.16856 28.8259C6.93459 28.8259 5.77536 28.3436 4.90459 27.4678C3.11948 25.6723 3.14799 22.7307 4.9682 20.9105L6.04464 19.8341C8.35034 17.5284 10.1456 14.8292 11.3806 11.8114L11.8077 10.7678C12.2851 12.6809 13.5823 14.8683 15.553 16.839C17.2664 18.5524 19.227 19.8253 21.0739 20.4234C21.2613 20.4842 21.4455 20.5371 21.6266 20.5827L20.5803 21.0109ZM16.3241 12.6531C16.3323 12.6809 16.34 12.7086 16.3491 12.7367C16.5683 13.4135 17.0294 14.1265 17.6474 14.7446C18.3223 15.4194 19.0601 15.8707 19.7373 16.0688L18.153 17.6531C17.5246 17.1893 16.9081 16.6588 16.3206 16.0713C15.7331 15.4838 15.2024 14.8672 14.7386 14.2385L16.3241 12.6531ZM20.8062 15.0001L20.8061 15L20.8049 15.0012C20.5308 15.2715 19.4398 15.0019 18.4149 13.977C17.9232 13.4853 17.5466 12.9113 17.3818 12.4023C17.2601 12.0266 17.264 11.7137 17.392 11.5858C17.4578 11.52 17.5723 11.487 17.7193 11.487C17.8582 11.487 18.0259 11.5166 18.2085 11.5757C18.7175 11.7405 19.2914 12.1171 19.7832 12.6088C20.8094 13.635 21.0785 14.7277 20.8062 15.0001ZM24.9068 19.1007C24.7817 19.2259 24.7226 19.2801 24.5104 19.3973C24.2981 19.5145 24.0883 19.5751 24.0883 19.5751C23.3879 19.7896 22.4601 19.7313 21.4083 19.3907C20.6423 19.1426 19.8515 18.7628 19.0671 18.274L21.572 15.7691C21.5726 15.7686 21.5732 15.7681 21.5738 15.7676C22.4013 14.9399 21.9615 13.252 20.5507 11.8413C19.9327 11.2232 19.2196 10.7621 18.5429 10.5429C17.7425 10.2837 17.0611 10.3815 16.6243 10.8182L16.624 10.8179L14.1176 13.3244C13.629 12.54 13.2493 11.7494 13.0012 10.9835C12.66 9.93001 12.602 9.00084 12.8178 8.29998C12.8178 8.29998 12.8882 8.06638 12.9726 7.92158C13.057 7.77678 13.1652 7.61099 13.2912 7.485C13.7055 7.07071 14.3032 6.87539 15.0179 6.87539C16.9011 6.87539 19.5953 8.23224 21.8775 10.5144C25.0257 13.6626 26.4129 17.5947 24.9068 19.1007Z" fill="white"/>
<path style="fill: #E15050" d="M31.9578 12.7778H26.9935C26.6938 12.7778 26.4508 13.0208 26.4508 13.3206C26.4508 13.6203 26.6938 13.8633 26.9935 13.8633H31.9578C32.2576 13.8633 32.5006 13.6203 32.5006 13.3206C32.5006 13.0208 32.2576 12.7778 31.9578 12.7778Z" fill="white"/>
<path style="fill: #E15050" d="M24.733 10.5215C24.825 10.719 25.0208 10.835 25.2252 10.835C25.302 10.835 25.3801 10.8185 25.4542 10.7839L30.9475 8.22221C31.2192 8.0955 31.3367 7.7726 31.21 7.50094C31.0833 7.22928 30.7604 7.11183 30.4887 7.23847L24.9954 9.80021C24.7238 9.92692 24.6063 10.2498 24.733 10.5215Z" fill="white"/>
<path style="fill: #E15050" d="M22.8057 8.46237C22.9074 8.54769 23.0312 8.58937 23.1543 8.58937C23.3091 8.58937 23.463 8.52344 23.5703 8.3955L27.6481 3.53616C27.8408 3.30654 27.8108 2.96418 27.5812 2.77155C27.3515 2.57884 27.0092 2.6088 26.8166 2.83841L22.7388 7.69775C22.5461 7.92737 22.5761 8.26966 22.8057 8.46237Z" fill="white"/>
<path style="fill: #E15050" d="M20.503 6.70447C20.5501 6.71707 20.5973 6.72307 20.6439 6.72307C20.8835 6.72307 21.1028 6.56315 21.1678 6.32065L22.6781 0.683377C22.7556 0.393843 22.5838 0.0962036 22.2942 0.0186278C22.0049 -0.058948 21.7071 0.112848 21.6295 0.402454L20.1192 6.03973C20.0416 6.32933 20.2135 6.6269 20.503 6.70447Z" fill="white"/>
</g>
<defs>
<clipPath id="clip0">
<rect style="fill: #E15050" width="35" height="35"/>
</clipPath>
</defs>
</svg>
