<svg width="30" height="30" viewBox="0 0 30 30" fill="none" xmlns="http://www.w3.org/2000/svg">
<path d="M29.4481 6.7975H28.1272V5.54771C28.1272 5.26779 27.9177 5.03224 27.6397 4.99957L19.9868 4.10079C18.2705 3.89916 16.5526 4.18615 14.9999 4.93099C13.4472 4.18615 11.7295 3.89909 10.0131 4.10079L2.36013 4.99957C2.08219 5.03224 1.87262 5.26779 1.87262 5.54771V6.7975H0.551895C0.247028 6.7975 0 7.0446 0 7.34939V25.4098C0 25.7146 0.247028 25.9617 0.551895 25.9617H29.4481C29.753 25.9617 30 25.7146 30 25.4098V7.34939C30 7.0446 29.7529 6.7975 29.4481 6.7975ZM19.858 5.19707L27.0234 6.0386V22.4525L19.9868 21.6261C18.4714 21.4481 16.9549 21.6516 15.5518 22.2143V5.89158C16.8963 5.26352 18.378 5.02326 19.858 5.19707ZM10.1419 5.19707C11.6219 5.02319 13.1037 5.26352 14.4481 5.89158V22.2144C13.3749 21.7841 12.2355 21.5634 11.081 21.5634C10.726 21.5634 10.3695 21.5842 10.0131 21.626L2.97648 22.4524V6.0386L10.1419 5.19707ZM28.8962 24.8579H1.10379V7.90129H1.87269V23.073C1.87269 23.2306 1.94002 23.3806 2.05783 23.4853C2.17557 23.5901 2.33253 23.6395 2.48897 23.6211L10.1419 22.7223C11.732 22.5355 13.3244 22.8262 14.746 23.563C14.9052 23.6455 15.0946 23.6455 15.2539 23.563C16.6754 22.8262 18.2672 22.5355 19.8579 22.7223L27.5108 23.6211C27.5323 23.6236 27.5538 23.6249 27.5752 23.6249C27.7096 23.6249 27.8404 23.5757 27.9419 23.4853C28.0598 23.3806 28.1271 23.2306 28.1271 23.073V7.90129H28.8961V24.8579H28.8962Z" fill="white"/>
<path d="M16.823 8.306C17.8121 8.03727 18.8301 7.96169 19.8479 8.08112L25.5939 8.75576C25.6158 8.75833 25.6375 8.75959 25.659 8.75959C25.935 8.75959 26.1734 8.55288 26.2064 8.27201C26.2419 7.96927 26.0253 7.69509 25.7226 7.65955L19.9766 6.98491C18.8176 6.84885 17.6593 6.93502 16.5337 7.24092C16.2395 7.32083 16.0659 7.62408 16.1458 7.9182C16.2257 8.21233 16.5292 8.38584 16.823 8.306Z" fill="white"/>
<path d="M4.32058 8.75989C4.34207 8.75989 4.36385 8.75864 4.38571 8.75607L10.1312 8.0815C11.1476 7.9631 12.1774 8.04044 13.1562 8.30704C13.4502 8.38703 13.7537 8.21374 13.8337 7.91954C13.9138 7.62542 13.7403 7.3221 13.4462 7.24203C12.3318 6.93849 11.1605 6.85034 10.0028 6.98522L4.25686 7.65986C3.9542 7.6954 3.73756 7.96958 3.7731 8.27231C3.80614 8.55319 4.04456 8.75989 4.32058 8.75989Z" fill="white"/>
<path d="M16.823 11.8377C17.8121 11.569 18.83 11.4934 19.8479 11.6128L25.5939 12.2875C25.6158 12.29 25.6375 12.2913 25.659 12.2913C25.935 12.2913 26.1734 12.0846 26.2064 11.8037C26.2419 11.501 26.0253 11.2268 25.7226 11.1913L19.9766 10.5166C18.8178 10.3806 17.6594 10.4667 16.5337 10.7726C16.2395 10.8525 16.0659 11.1558 16.1458 11.4499C16.2257 11.744 16.5292 11.9176 16.823 11.8377Z" fill="white"/>
<path d="M4.32058 12.2911C4.34207 12.2911 4.36385 12.2899 4.38571 12.2873L10.1312 11.6128C11.1469 11.4944 12.1774 11.5717 13.1562 11.8383C13.4502 11.9183 13.7537 11.745 13.8337 11.4508C13.9138 11.1567 13.7403 10.8533 13.4462 10.7733C12.3317 10.4697 11.16 10.3816 10.0028 10.5165L4.25686 11.1911C3.9542 11.2266 3.73756 11.5008 3.7731 11.8036C3.80614 12.0844 4.04456 12.2911 4.32058 12.2911Z" fill="white"/>
<path d="M16.823 15.3689C17.8121 15.1002 18.83 15.0246 19.8479 15.1441L25.5939 15.8187C25.6158 15.8213 25.6375 15.8225 25.659 15.8225C25.935 15.8225 26.1734 15.6158 26.2064 15.3349C26.2419 15.0322 26.0253 14.758 25.7226 14.7225L19.9766 14.0479C18.8178 13.9119 17.6594 13.998 16.5337 14.3039C16.2395 14.3838 16.0659 14.687 16.1458 14.9811C16.2257 15.2753 16.5292 15.4489 16.823 15.3689Z" fill="white"/>
<path d="M4.32058 15.8224C4.34207 15.8224 4.36385 15.8212 4.38571 15.8186L10.1312 15.144C11.1469 15.0257 12.1774 15.103 13.1562 15.3696C13.4502 15.4496 13.7537 15.2763 13.8337 14.9821C13.9138 14.6879 13.7403 14.3846 13.4462 14.3046C12.3318 14.001 11.16 13.9129 10.0028 14.0477L4.25686 14.7223C3.9542 14.7578 3.73756 15.032 3.7731 15.3348C3.80614 15.6157 4.04456 15.8224 4.32058 15.8224Z" fill="white"/>
</svg>
