<svg width="25" height="25" viewBox="0 0 25 25" fill="none" xmlns="http://www.w3.org/2000/svg">
<g clip-path="url(#clip0)">
<path style="fill: #E15050" d="M13.2812 25.0488C12.793 25.0488 12.3047 25.0488 11.8164 25.0488C11.6406 25.0293 11.4648 25.0098 11.2891 24.9902C8.59863 24.6924 6.22559 23.6621 4.21387 21.8506C2.08008 19.9219 0.74707 17.5391 0.244141 14.7021C0.161133 14.2334 0.112305 13.7549 0.0488281 13.2812C0.0488281 12.793 0.0488281 12.3047 0.0488281 11.8164C0.0683594 11.6406 0.0878906 11.4648 0.107422 11.2891C0.400391 8.65234 1.39648 6.31836 3.14941 4.32617C5.08789 2.12891 7.50488 0.756836 10.3906 0.244141C10.8594 0.161133 11.3379 0.112305 11.8115 0.0488281C12.2998 0.0488281 12.7881 0.0488281 13.2764 0.0488281C13.4521 0.0683594 13.6279 0.0878906 13.8037 0.107422C16.4844 0.405273 18.8525 1.43066 20.8594 3.23242C23.0078 5.16113 24.3457 7.54883 24.8486 10.3955C24.9316 10.8643 24.9805 11.3428 25.0439 11.8164C25.0439 12.3047 25.0439 12.793 25.0439 13.2812C25.0244 13.457 25.0049 13.6328 24.9854 13.8086C24.6924 16.4453 23.6963 18.7793 21.9434 20.7715C20.0049 22.9688 17.5879 24.3359 14.7021 24.8535C14.2334 24.9365 13.7549 24.9854 13.2812 25.0488ZM12.5391 23.4082C18.5107 23.4277 23.3643 18.5889 23.4082 12.5732C23.4521 6.61133 18.5693 1.71387 12.5635 1.69434C6.58691 1.66992 1.7334 6.50879 1.68945 12.5244C1.64551 18.4863 6.52832 23.3838 12.5391 23.4082Z" fill="white"/>
<path style="fill: #E15050" d="M13.374 17.5246C13.6084 17.5246 13.8183 17.5197 14.0283 17.5246C14.5117 17.5344 14.8632 17.8664 14.873 18.3205C14.8876 18.7698 14.541 19.1408 14.0625 19.1506C13.0517 19.1653 12.0459 19.1653 11.0351 19.1506C10.5566 19.1457 10.2099 18.7698 10.2246 18.3205C10.2392 17.8664 10.5908 17.5344 11.0742 17.5246C11.2793 17.5197 11.4794 17.5246 11.7041 17.5246C11.7041 15.1955 11.7041 12.8762 11.7041 10.5324C11.5039 10.5324 11.3134 10.5373 11.1181 10.5324C10.581 10.5178 10.2197 10.176 10.2246 9.70237C10.2295 9.22873 10.6005 8.8967 11.1377 8.89182C11.5185 8.88694 11.9043 8.89182 12.2851 8.89182C13.1005 8.89182 13.374 9.16037 13.374 9.97092C13.374 12.3879 13.374 14.8049 13.374 17.217C13.374 17.3098 13.374 17.4026 13.374 17.5246Z" fill="white"/>
<path style="fill: #E15050" d="M12.3243 7.91504C11.7237 7.91992 11.2354 7.4414 11.2305 6.84082C11.2256 6.23047 11.7139 5.7373 12.3243 5.7373C12.9248 5.7373 13.4082 6.22559 13.4082 6.82129C13.4082 7.42676 12.9248 7.91015 12.3243 7.91504Z" fill="white"/>
</g>
<defs>
<clipPath id="clip0">
<rect style="fill: #E15050" width="25" height="25"/>
</clipPath>
</defs>
</svg>
