<svg width="30" height="31" viewBox="0 0 30 31" fill="none" xmlns="http://www.w3.org/2000/svg">
<path style="fill: #E15050" d="M15.7149 30.0917C13.7696 30.0917 11.8711 29.7042 10.084 28.9413C8.25003 28.1663 6.61527 27.0401 5.2266 25.5991C0.996127 21.2276 -0.281217 14.7067 1.97464 8.98506C2.23831 8.31299 2.80667 7.82861 3.48636 7.68936C3.63285 7.65908 3.77347 7.64697 3.90238 7.64697C4.45902 7.64697 4.9805 7.871 5.37308 8.27666L9.57425 12.6179C9.70902 12.7571 9.77933 12.9388 9.77933 13.1325C9.77933 13.3263 9.70316 13.5079 9.57425 13.6472C8.25003 15.0155 8.24417 17.2558 9.57425 18.6302L11.9766 21.1126C12.6153 21.7726 13.4766 22.1419 14.3848 22.1419C15.2989 22.1419 16.1543 21.7786 16.793 21.1126C16.9278 20.9733 17.1035 20.9007 17.291 20.9007C17.4785 20.9007 17.6543 20.9794 17.7891 21.1126L21.9903 25.4538C22.4883 25.9685 22.6992 26.695 22.5586 27.3974C22.418 28.1058 21.9493 28.687 21.3047 28.9595C19.5235 29.7103 17.6426 30.0917 15.7149 30.0917ZM3.89652 9.1001C3.62113 9.1001 3.38089 9.26963 3.27542 9.53604C1.24222 14.7128 2.39652 20.6161 6.22269 24.5698C8.7598 27.1915 12.1289 28.6386 15.709 28.6386C17.4492 28.6386 19.1543 28.2935 20.7715 27.6153C20.9883 27.5245 21.1348 27.3308 21.1758 27.1067C21.2227 26.8767 21.1524 26.6405 20.9942 26.4771L17.2618 22.6202L16.9453 22.82C16.1778 23.3165 15.2871 23.5829 14.3789 23.5829C13.084 23.5829 11.877 23.0683 10.9746 22.1298L8.5723 19.6474C7.793 18.8421 7.30667 17.7825 7.19535 16.6564C7.08402 15.5423 7.33597 14.4161 7.91019 13.4776L8.10941 13.1507L4.37699 9.29385L4.37113 9.28779C4.2305 9.1667 4.06644 9.1001 3.89652 9.1001Z" fill="white"/>
<path style="fill: #E15050" d="M22.1543 17.8676C21.9668 17.8676 21.791 17.7889 21.6562 17.6557C21.3867 17.3772 21.3867 16.9049 21.6562 16.6264C22.6289 15.6213 23.168 14.2832 23.168 12.8604C23.168 11.4375 22.6289 10.0994 21.6562 9.09434C20.6836 8.08926 19.3887 7.53223 18.0117 7.53223C16.6348 7.53223 15.3398 8.08926 14.3672 9.09434C14.2324 9.23359 14.0566 9.30625 13.8691 9.30625C13.6816 9.30625 13.5059 9.22754 13.3711 9.09434C13.2363 8.95508 13.166 8.77344 13.166 8.57969C13.166 8.38594 13.2422 8.2043 13.3711 8.06504C14.6133 6.78145 16.2598 6.0791 18.0117 6.0791C19.7637 6.0791 21.4101 6.7875 22.6523 8.06504C23.8945 9.34258 24.5742 11.05 24.5742 12.8604C24.5742 14.6707 23.8887 16.3721 22.6523 17.6557C22.5234 17.7949 22.3476 17.8676 22.1543 17.8676Z" fill="white"/>
<path style="fill: #E15050" d="M25.4707 21.2943C25.2832 21.2943 25.1074 21.2156 24.9727 21.0824C24.8379 20.9432 24.7676 20.7615 24.7676 20.5678C24.7676 20.374 24.8437 20.1924 24.9727 20.0531C26.8301 18.1338 27.8496 15.5848 27.8496 12.8602C27.8496 10.1416 26.8301 7.58652 24.9727 5.66719C23.1152 3.75391 20.6426 2.69434 18.0117 2.69434C15.3809 2.69434 12.9082 3.75391 11.0508 5.67324C10.916 5.8125 10.7402 5.88516 10.5527 5.88516C10.3652 5.88516 10.1895 5.80645 10.0547 5.67324C9.92578 5.54004 9.84961 5.3584 9.84961 5.15859C9.84961 4.96484 9.91992 4.7832 10.0547 4.64395C12.1816 2.44609 15.0059 1.24121 18.0117 1.24121C21.0176 1.24121 23.8418 2.45215 25.9687 4.64395C28.0898 6.83574 29.2559 9.7541 29.2559 12.8602C29.2559 15.9662 28.0898 18.8846 25.9687 21.0764C25.8281 21.2217 25.6582 21.2943 25.4707 21.2943Z" fill="white"/>
</svg>
