<svg width="25" height="25" viewBox="0 0 25 25" fill="none" xmlns="http://www.w3.org/2000/svg">
<path d="M21.2891 13.2324H11.7676V3.71094C11.7676 3.30645 11.4396 2.97852 11.0352 2.97852C4.95034 2.97852 0 7.90698 0 13.9648C0 20.038 4.9625 25 11.0352 25C17.093 25 22.0215 20.0497 22.0215 13.9648C22.0215 13.5604 21.6936 13.2324 21.2891 13.2324ZM10.3027 4.47095V12.1967L4.82871 6.72261C6.32676 5.45 8.2229 4.62827 10.3027 4.47095ZM11.0352 23.5352C5.75806 23.5352 1.46484 19.2419 1.46484 13.9648C1.46484 11.5934 2.34116 9.42207 3.78799 7.75347L10.5173 14.4828C10.6497 14.6152 10.8381 14.6924 11.0352 14.6924C11.0353 14.6924 11.0355 14.6924 11.0356 14.6924H20.529C20.1556 19.6286 16.0402 23.5352 11.0352 23.5352Z" fill="#E15050"/>
<path d="M13.9648 0C13.5604 0 13.2324 0.32793 13.2324 0.732422V11.0352C13.2324 11.4396 13.5604 11.7676 13.9648 11.7676H24.2676C24.6721 11.7676 25 11.4396 25 11.0352C25 4.96196 20.0375 0 13.9648 0ZM14.6973 10.3027V1.49258C19.3917 1.84951 23.1505 5.60825 23.5074 10.3027H14.6973Z" fill="#E15050"/>
</svg>
