<svg width="25" height="25" viewBox="0 0 25 25" fill="none" xmlns="http://www.w3.org/2000/svg">
<path d="M10.3007 12.217C10.1946 12.099 10.0472 12.0342 9.89387 12.0342C9.77005 12.0342 9.64623 12.0755 9.55189 12.1639L6.91038 14.4104C6.79246 14.5106 6.7276 14.658 6.7276 14.8113C6.7276 14.9646 6.79835 15.112 6.91038 15.2122L9.546 17.4587C9.64034 17.5413 9.75826 17.5884 9.89387 17.5884C10.0472 17.5884 10.1946 17.5177 10.3007 17.4056C10.4835 17.1757 10.4599 16.8514 10.2418 16.6568L8.07784 14.8172L10.2418 12.9776C10.4658 12.7712 10.4894 12.441 10.3007 12.217Z" fill="#E15050"/>
<path d="M18.0896 14.4104L15.4481 12.158C15.3479 12.0755 15.23 12.0342 15.1002 12.0342C14.9469 12.0342 14.7995 12.1049 14.6934 12.217C14.5106 12.4469 14.5342 12.7712 14.7524 12.9658L16.9163 14.8054L14.7524 16.645C14.5283 16.8337 14.4988 17.1757 14.6934 17.3939C14.7877 17.5118 14.941 17.5766 15.0943 17.5766C15.2241 17.5766 15.3479 17.5354 15.4422 17.4528L18.0837 15.2063C18.2017 15.1002 18.2665 14.9587 18.2665 14.8054C18.2783 14.658 18.2134 14.5047 18.0896 14.4104Z" fill="#E15050"/>
<path d="M13.3196 10.4127C13.2842 10.4068 13.2429 10.4009 13.2076 10.4009C12.9599 10.4009 12.7418 10.5778 12.6887 10.8195L11.0437 18.6261C11.0142 18.7617 11.0378 18.9032 11.1203 19.0271C11.2029 19.145 11.3208 19.2275 11.4564 19.257C11.4977 19.2629 11.533 19.2629 11.5625 19.2629C11.8102 19.2629 12.0283 19.086 12.0814 18.8384L13.7264 11.0377C13.7559 10.9021 13.7323 10.7605 13.6498 10.6367C13.579 10.5247 13.4552 10.4422 13.3196 10.4127Z" fill="#E15050"/>
<path d="M24.9705 7.71823C24.9705 7.71233 24.9705 7.71233 24.9705 7.71823C24.9705 7.68874 24.9705 7.66516 24.9646 7.64157V4.33969C24.9764 2.7595 23.691 1.47412 22.1108 1.47412H2.88913C1.30894 1.47412 0.0235596 2.7595 0.0235596 4.33969V7.72412C0.0235596 7.73002 0.0235596 7.74181 0.0235596 7.74771V20.6487C0.0235596 22.2288 1.30894 23.5142 2.88913 23.5142H22.1049C23.6851 23.5142 24.9705 22.2288 24.9705 20.6487V7.71823ZM1.08488 4.33969C1.08488 3.34322 1.89266 2.54134 2.88323 2.54134H22.1049C23.1014 2.54134 23.9033 3.34912 23.9033 4.33969V7.18756H1.08488V4.33969ZM22.1049 22.4529H2.88323C1.88677 22.4529 1.08488 21.6451 1.08488 20.6545V8.25478H23.9033V20.6487C23.9033 21.6451 23.0955 22.4529 22.1049 22.4529Z" fill="#E15050"/>
<path d="M7.12268 3.47266C6.34437 3.47266 5.70758 4.10945 5.70758 4.88775C5.70758 5.66605 6.34437 6.30284 7.12268 6.30284C7.89508 6.30284 8.53187 5.66605 8.53777 4.88775C8.53187 4.10945 7.89508 3.47266 7.12268 3.47266ZM7.12268 5.24152C6.934 5.24152 6.7689 5.08233 6.7689 4.88775C6.7689 4.69907 6.9281 4.53398 7.12268 4.53398C7.31725 4.53398 7.47645 4.69317 7.47645 4.88775C7.47055 5.08233 7.31135 5.24152 7.12268 5.24152Z" fill="#E15050"/>
<path d="M3.14862 3.45508C2.37031 3.45508 1.73352 4.09187 1.73352 4.87017C1.73352 5.64847 2.37031 6.28527 3.14862 6.28527C3.92692 6.28527 4.56371 5.64847 4.56371 4.87017C4.56371 4.09187 3.93281 3.45508 3.14862 3.45508ZM3.14862 5.22984C2.95994 5.22984 2.79484 5.07064 2.79484 4.87607C2.79484 4.68149 2.95404 4.52229 3.14862 4.52229C3.34909 4.52229 3.50239 4.6756 3.50239 4.87607C3.50239 5.07654 3.33729 5.22984 3.14862 5.22984Z" fill="#E15050"/>
<path d="M11.0791 3.49609C10.3008 3.49609 9.66986 4.12699 9.66986 4.90529C9.66986 5.68359 10.3008 6.32038 11.0791 6.32038C11.8574 6.32038 12.4942 5.68359 12.4942 4.90529C12.5 4.12109 11.8633 3.49609 11.0791 3.49609ZM11.0791 5.25317C10.8904 5.25317 10.7253 5.09397 10.7253 4.89939C10.7253 4.71072 10.8845 4.54562 11.0791 4.54562C11.2677 4.54562 11.4328 4.70482 11.4328 4.89939C11.4328 5.09987 11.2795 5.25317 11.0791 5.25317Z" fill="#E15050"/>
</svg>
