<svg width="25" height="25" viewBox="0 0 25 25" fill="none" xmlns="http://www.w3.org/2000/svg">
<path d="M24.7805 10.1657C24.7147 9.82021 24.4127 9.57031 24.061 9.57031H12.5C12.0955 9.57031 11.7676 9.89824 11.7676 10.3027V14.6973C11.7676 15.1018 12.0955 15.4297 12.5 15.4297H18.4048C17.9596 16.3254 17.3208 17.1006 16.554 17.7078C16.4894 17.7414 16.4288 17.7853 16.3746 17.8394C16.369 17.845 16.3642 17.8511 16.3588 17.8569C15.2541 18.6682 13.908 19.1406 12.5 19.1406C8.82539 19.1406 5.85938 16.1471 5.85938 12.5C5.85938 8.85142 8.827 5.85938 12.5 5.85938C13.8947 5.85938 15.2613 6.33267 16.4523 7.22813C16.7438 7.44731 17.1524 7.4186 17.4104 7.1606L20.5358 4.03516C20.8396 3.7314 20.8177 3.23198 20.4884 2.95596C18.2146 1.0498 15.3776 0 12.5 0C9.1792 0 6.04521 1.30522 3.67524 3.6752C1.30518 6.04521 0 9.17925 0 12.5C0 15.8208 1.30518 18.9548 3.67524 21.3248C6.04521 23.6948 9.1792 25 12.5 25C15.8208 25 18.9548 23.6948 21.3248 21.3248C23.6948 18.9548 25 15.8208 25 12.5C25 11.7157 24.9261 10.9303 24.7805 10.1657ZM12.5 1.46484C14.7745 1.46484 17.0239 2.2127 18.9146 3.58467L16.8079 5.69145C15.4882 4.84102 14.011 4.39453 12.5 4.39453C10.3512 4.39453 8.32026 5.24214 6.7812 6.7812C6.20264 7.35981 5.72183 8.00796 5.34697 8.70571L3.20269 6.56143C5.16582 3.49868 8.59985 1.46484 12.5 1.46484ZM2.47026 7.90059L4.73887 10.1692C4.51211 10.917 4.39453 11.7003 4.39453 12.5C4.39453 13.2997 4.51211 14.083 4.73887 14.8308L2.47026 17.0994C1.82529 15.6985 1.46484 14.1406 1.46484 12.5C1.46484 10.8594 1.82529 9.30151 2.47026 7.90059ZM3.20269 18.4386L5.34697 16.2943C5.72183 16.992 6.20264 17.6402 6.7812 18.2188C8.32026 19.7579 10.3512 20.6055 12.5 20.6055C14.0457 20.6055 15.5286 20.1641 16.8238 19.3244L18.9486 21.4493C17.1334 22.7609 14.9056 23.5352 12.5 23.5352C8.59985 23.5352 5.16582 21.5013 3.20269 18.4386ZM20.0816 20.5107L17.9844 18.4134C18.9995 17.4561 19.7689 16.2409 20.1861 14.9174C20.2562 14.6949 20.2161 14.4522 20.0782 14.2641C19.9402 14.076 19.7208 13.9648 19.4875 13.9648H13.2324V11.0351H23.4379C23.5025 11.5191 23.5352 12.0097 23.5352 12.5C23.5352 15.6513 22.2071 18.498 20.0816 20.5107Z" fill="#E15050"/>
</svg>
