<svg width="25" height="25" viewBox="0 0 25 25" fill="none" xmlns="http://www.w3.org/2000/svg">
<g clip-path="url(#clip0)">
<path d="M23.9217 16.996C24.434 16.3425 24.6798 15.642 24.6484 14.9205C24.617 14.1259 24.2615 13.5038 23.9688 13.1221C24.3086 12.2752 24.4393 10.9421 23.3048 9.90694C22.4736 9.14889 21.062 8.80908 19.1068 8.90318C17.7318 8.96591 16.5817 9.22208 16.5346 9.23254H16.5294C16.268 9.27959 15.9909 9.3371 15.7086 9.39983C15.6877 9.06524 15.7452 8.234 16.3621 6.3624C17.094 4.1353 17.0522 2.43099 16.2262 1.2913C15.3583 0.0941029 13.9729 0 13.5652 0C13.1731 0 12.8123 0.162066 12.5562 0.460059C11.9759 1.13446 12.0438 2.37871 12.117 2.95378C11.4269 4.80447 9.4926 9.34233 7.85626 10.6023C7.82489 10.6232 7.79875 10.6493 7.77261 10.6754C7.29164 11.1826 6.96751 11.7315 6.74793 12.2125C6.43949 12.0452 6.08921 11.9511 5.7128 11.9511H2.52376C1.32133 11.9511 0.348938 12.9287 0.348938 14.1259V22.6213C0.348938 23.8237 1.32656 24.7961 2.52376 24.7961H5.7128C6.17809 24.7961 6.61201 24.6497 6.96751 24.3988L8.19607 24.5452C8.38428 24.5713 11.7302 24.9948 15.1649 24.9268C15.787 24.9739 16.3726 25 16.9163 25C17.8521 25 18.6676 24.9268 19.3473 24.7804C20.947 24.4406 22.0396 23.761 22.5938 22.7624C23.0173 21.9992 23.0173 21.2411 22.9493 20.7601C23.9897 19.8191 24.1726 18.7788 24.1361 18.0468C24.1151 17.6234 24.021 17.2627 23.9217 16.996ZM2.52376 23.3846C2.1003 23.3846 1.76048 23.0395 1.76048 22.6213V14.1207C1.76048 13.6972 2.10553 13.3574 2.52376 13.3574H5.7128C6.13626 13.3574 6.47608 13.7024 6.47608 14.1207V22.6161C6.47608 23.0395 6.13104 23.3793 5.7128 23.3793H2.52376V23.3846ZM22.5834 16.3844C22.3638 16.6144 22.322 16.9647 22.4893 17.2365C22.4893 17.2417 22.7036 17.6077 22.7297 18.1096C22.7663 18.7944 22.437 19.4009 21.7469 19.9184C21.5012 20.1066 21.4018 20.4308 21.5064 20.7235C21.5064 20.7288 21.7312 21.4189 21.3652 22.0724C21.015 22.6997 20.236 23.1493 19.0545 23.4003C18.1082 23.6041 16.8222 23.6407 15.2433 23.5153C15.2224 23.5153 15.1963 23.5153 15.1701 23.5153C11.8086 23.5885 8.41042 23.1493 8.37382 23.1441H8.36859L7.84057 23.0813C7.87194 22.935 7.88762 22.7781 7.88762 22.6213V14.1207C7.88762 13.8959 7.85103 13.6763 7.78829 13.4724C7.8824 13.1221 8.14379 12.3432 8.76069 11.6792C11.108 9.81807 13.4031 3.53931 13.5024 3.26746C13.5443 3.15767 13.5547 3.03743 13.5338 2.91719C13.4449 2.33166 13.4763 1.61543 13.6018 1.40109C13.8788 1.40632 14.6264 1.48473 15.076 2.10686C15.6093 2.844 15.5884 4.16144 15.0133 5.90757C14.135 8.56859 14.0618 9.96968 14.7571 10.5866C15.1022 10.895 15.5622 10.9107 15.8968 10.7905C16.2157 10.7173 16.5189 10.6545 16.8065 10.6075C16.8274 10.6023 16.8535 10.597 16.8744 10.5918C18.4794 10.2415 21.3548 10.0272 22.3533 10.9368C23.2003 11.7106 22.599 12.7353 22.5311 12.845C22.3376 13.1378 22.3952 13.5194 22.6565 13.7547C22.6618 13.7599 23.2107 14.2775 23.2368 14.9728C23.2578 15.4381 23.0382 15.9138 22.5834 16.3844Z" fill="#E15050"/>
</g>
<defs>
<clipPath id="clip0">
<rect width="25" height="25" fill="white"/>
</clipPath>
</defs>
</svg>
