<svg width="40" height="40" viewBox="0 0 40 40" fill="none" xmlns="http://www.w3.org/2000/svg">
<g clip-path="url(#clip0)">
<path d="M17.6152 0C7.90242 0 0 7.90242 0 17.6152C0 27.3284 7.90242 35.2303 17.6152 35.2303C27.3284 35.2303 35.2303 27.3284 35.2303 17.6152C35.2303 7.90242 27.3284 0 17.6152 0ZM17.6152 31.9784C9.69539 31.9784 3.25203 25.535 3.25203 17.6152C3.25203 9.69547 9.69539 3.25203 17.6152 3.25203C25.5349 3.25203 31.9783 9.69539 31.9783 17.6152C31.9783 25.5349 25.5349 31.9784 17.6152 31.9784Z" fill="white"/>
<path d="M39.5235 37.2242L30.2009 27.9017C29.5657 27.2665 28.537 27.2665 27.9017 27.9017C27.2665 28.5364 27.2665 29.5663 27.9017 30.2009L37.2242 39.5235C37.5418 39.841 37.9576 39.9999 38.3739 39.9999C38.7896 39.9999 39.2058 39.841 39.5235 39.5235C40.1587 38.8888 40.1587 37.8589 39.5235 37.2242Z" fill="white"/>
</g>
<defs>
<clipPath id="clip0">
<rect width="40" height="40" fill="white"/>
</clipPath>
</defs>
</svg>
