<svg width="13" height="20" viewBox="0 0 13 20" fill="none" xmlns="http://www.w3.org/2000/svg">
<path d="M12.0383 7.84317H7.34092L11.3948 0.835004C11.497 0.664073 11.7317 0.311064 11.6295 0.140133C11.5311 -0.0307976 11.1033 0.00264539 10.9027 0.00264539H4.08948C3.7299 -0.00478638 3.66933 0.0583837 3.55199 0.385382L0.145368 10.4554C0.088591 10.6264 -0.0703849 10.9459 0.035599 11.0909C0.141583 11.2358 0.501171 11.1875 0.682858 11.1875H5.50134L2.43538 18.2514C2.32561 18.504 1.71999 19.838 1.95467 19.9867C2.18556 20.1316 3.19619 19.0503 3.38166 18.8422L12.466 8.77214C12.6136 8.60864 13.0792 8.19246 12.9883 7.9918C12.8937 7.79114 12.2616 7.84317 12.0383 7.84317Z" fill="#FFCA08"/>
</svg>
