<svg width="30" height="30" viewBox="0 0 30 30" fill="none" xmlns="http://www.w3.org/2000/svg">
<path d="M26.7085 1.55469H7.62146C5.89676 1.55469 4.49393 2.94538 4.49393 4.64578L4.37247 21.328H0.771259C0.449396 21.328 0.18219 21.6073 0.18219 21.9474V24.2612C0.18219 25.3361 0.595145 26.3563 1.34211 27.1397C2.05871 27.8867 3 28.3361 4.00203 28.4089V28.4454H20.3138V28.4272C20.3198 28.4272 20.3198 28.4272 20.3259 28.4272C20.3684 28.4332 20.417 28.4393 20.4656 28.4393H20.4777C22.7733 28.4272 24.6255 26.5506 24.6134 24.2551V9.68019H29.3441C29.666 9.68019 29.9332 9.40084 29.9332 9.05469V4.81582C29.9453 3.0304 28.4939 1.56683 26.7085 1.55469ZM28.7429 8.48384H24.6255V4.82797C24.6255 3.70448 25.5729 2.75104 26.6964 2.75104H26.7085C27.8381 2.76319 28.749 3.69234 28.7429 4.81582V8.48384ZM16.913 21.334H5.5749L5.69636 4.65185C5.69636 3.60732 6.55871 2.75712 7.62146 2.75712H24.1883C23.6903 3.38262 23.4231 4.09315 23.4231 4.83404V24.2672C23.4231 25.913 22.1053 27.249 20.4838 27.249H20.4777C18.8381 27.2369 17.5142 25.8948 17.5142 24.2551V21.9535C17.5142 21.6134 17.253 21.3401 16.913 21.334ZM17.5324 27.2126C17.5445 27.2247 17.5567 27.2369 17.5688 27.249H4.33604C2.70851 27.249 1.38462 25.913 1.38462 24.2672V22.5304H16.3178V24.2551C16.3117 25.3543 16.7551 26.4292 17.5324 27.2126Z" fill="white"/>
<path d="M18.589 9.32817C18.5951 9.10348 18.4676 8.89093 18.2671 8.78769L14.5141 6.94153C14.3501 6.86259 14.1558 6.86259 13.9858 6.94153L10.2388 8.78161C10.0384 8.88485 9.91088 9.0974 9.91696 9.31603V12.729C9.91696 13.8039 10.5789 15.061 11.4534 15.6622L13.919 17.3444C14.0222 17.4112 14.1376 17.4476 14.253 17.4476C14.3684 17.4476 14.4898 17.4112 14.587 17.3444L17.0465 15.6622C17.921 15.067 18.5829 13.8039 18.5829 12.729L18.589 9.32817ZM17.3866 9.69254V12.729C17.3866 13.4152 16.9311 14.2897 16.3724 14.6723L14.2469 16.1237L12.1275 14.6723C11.5688 14.2897 11.1133 13.4213 11.1133 12.729V9.68647L14.2469 8.13789L17.3866 9.69254Z" fill="white"/>
<path d="M13.3057 11.7391C13.081 11.5144 12.7166 11.5144 12.4919 11.733C12.2672 11.9577 12.2672 12.3221 12.4858 12.5468L13.3968 13.4699C13.5061 13.5792 13.6518 13.6399 13.8037 13.6399C13.9555 13.6399 14.1012 13.5792 14.2105 13.4699L16.0081 11.6723C16.1174 11.563 16.1782 11.4172 16.1782 11.2654C16.1782 11.1136 16.1174 10.9678 16.0081 10.8585C15.8988 10.7492 15.7531 10.6885 15.6012 10.6885C15.4494 10.6885 15.3037 10.7492 15.1944 10.8585L13.8037 12.2492L13.3057 11.7391Z" fill="white"/>
</svg>
