<svg width="30" height="31" viewBox="0 0 30 31" fill="#E15050" xmlns="http://www.w3.org/2000/svg">
<path style="fill: #E15050" d="M15.7148 30.0917C13.7695 30.0917 11.8711 29.7042 10.084 28.9413C8.24997 28.1663 6.61521 27.0401 5.22653 25.5991C0.996066 21.2276 -0.281278 14.7067 1.97458 8.98506C2.23825 8.31299 2.80661 7.82861 3.4863 7.68936C3.63278 7.65908 3.77341 7.64697 3.90232 7.64697C4.45896 7.64697 4.98044 7.871 5.37302 8.27666L9.57419 12.6179C9.70895 12.7571 9.77927 12.9388 9.77927 13.1325C9.77927 13.3263 9.7031 13.5079 9.57419 13.6472C8.24997 15.0155 8.24411 17.2558 9.57419 18.6302L11.9765 21.1126C12.6152 21.7726 13.4765 22.1419 14.3847 22.1419C15.2988 22.1419 16.1543 21.7786 16.7929 21.1126C16.9277 20.9733 17.1035 20.9007 17.291 20.9007C17.4785 20.9007 17.6543 20.9794 17.789 21.1126L21.9902 25.4538C22.4883 25.9685 22.6992 26.695 22.5586 27.3974C22.4179 28.1058 21.9492 28.687 21.3047 28.9595C19.5234 29.7103 17.6425 30.0917 15.7148 30.0917ZM3.89646 9.1001C3.62107 9.1001 3.38083 9.26963 3.27536 9.53604C1.24216 14.7128 2.39646 20.6161 6.22263 24.5698C8.75974 27.1915 12.1289 28.6386 15.709 28.6386C17.4492 28.6386 19.1543 28.2935 20.7715 27.6153C20.9883 27.5245 21.1347 27.3308 21.1758 27.1067C21.2226 26.8767 21.1523 26.6405 20.9941 26.4771L17.2617 22.6202L16.9453 22.82C16.1777 23.3165 15.2871 23.5829 14.3789 23.5829C13.084 23.5829 11.8769 23.0683 10.9746 22.1298L8.57224 19.6474C7.79294 18.8421 7.30661 17.7825 7.19528 16.6564C7.08396 15.5423 7.33591 14.4161 7.91013 13.4776L8.10935 13.1507L4.37692 9.29385L4.37107 9.28779C4.23044 9.1667 4.06638 9.1001 3.89646 9.1001Z" fill="white"/>
<path style="fill: #E15050" d="M22.1543 17.8676C21.9668 17.8676 21.791 17.7889 21.6562 17.6557C21.3867 17.3772 21.3867 16.9049 21.6562 16.6264C22.6289 15.6213 23.168 14.2832 23.168 12.8604C23.168 11.4375 22.6289 10.0994 21.6562 9.09434C20.6836 8.08926 19.3887 7.53223 18.0117 7.53223C16.6348 7.53223 15.3398 8.08926 14.3672 9.09434C14.2324 9.23359 14.0566 9.30625 13.8691 9.30625C13.6816 9.30625 13.5059 9.22754 13.3711 9.09434C13.2363 8.95508 13.166 8.77344 13.166 8.57969C13.166 8.38594 13.2422 8.2043 13.3711 8.06504C14.6133 6.78145 16.2598 6.0791 18.0117 6.0791C19.7637 6.0791 21.4101 6.7875 22.6523 8.06504C23.8945 9.34258 24.5742 11.05 24.5742 12.8604C24.5742 14.6707 23.8887 16.3721 22.6523 17.6557C22.5234 17.7949 22.3476 17.8676 22.1543 17.8676Z" fill="white"/>
<path style="fill: #E15050" d="M25.4707 21.2943C25.2832 21.2943 25.1074 21.2156 24.9727 21.0824C24.8379 20.9432 24.7676 20.7615 24.7676 20.5678C24.7676 20.374 24.8437 20.1924 24.9727 20.0531C26.8301 18.1338 27.8496 15.5848 27.8496 12.8602C27.8496 10.1416 26.8301 7.58652 24.9727 5.66719C23.1152 3.75391 20.6426 2.69434 18.0117 2.69434C15.3809 2.69434 12.9082 3.75391 11.0508 5.67324C10.916 5.8125 10.7402 5.88516 10.5527 5.88516C10.3652 5.88516 10.1895 5.80645 10.0547 5.67324C9.92578 5.54004 9.84961 5.3584 9.84961 5.15859C9.84961 4.96484 9.91992 4.7832 10.0547 4.64395C12.1816 2.44609 15.0059 1.24121 18.0117 1.24121C21.0176 1.24121 23.8418 2.45215 25.9687 4.64395C28.0898 6.83574 29.2559 9.7541 29.2559 12.8602C29.2559 15.9662 28.0898 18.8846 25.9687 21.0764C25.8281 21.2217 25.6582 21.2943 25.4707 21.2943Z" fill="white"/>
</svg>
