<svg width="30" height="30" viewBox="0 0 30 30" fill="#E15050;" xmlns="http://www.w3.org/2000/svg">
<path style="fill: #E15050" d="M16.1719 15.1758C17.1411 15.1758 17.9297 14.3872 17.9297 13.418C17.9297 12.4487 17.1411 11.6602 16.1719 11.6602H13.8281C13.5045 11.6602 13.2422 11.9225 13.2422 12.2461V14.0039H12.6562C12.3326 14.0039 12.0703 14.2662 12.0703 14.5898C12.0703 14.9135 12.3326 15.1758 12.6562 15.1758H13.2422V16.3477H12.6562C12.3326 16.3477 12.0703 16.61 12.0703 16.9336C12.0703 17.2573 12.3326 17.5196 12.6562 17.5196H13.2422V18.1054C13.2422 18.429 13.5045 18.6913 13.8281 18.6913C14.1517 18.6913 14.4141 18.429 14.4141 18.1054V17.5196H16.1719C16.4954 17.5196 16.7578 17.2573 16.7578 16.9336C16.7578 16.61 16.4954 16.3477 16.1719 16.3477H14.4141V15.1758H16.1719ZM14.4141 12.832H16.1719C16.495 12.832 16.7578 13.0949 16.7578 13.418C16.7578 13.7411 16.495 14.0039 16.1719 14.0039H14.4141V12.832Z" fill="white"/>
<path style="fill: #E15050" d="M29.5639 6.99296C24.4294 5.6347 19.5804 6.32763 14.891 6.99771C12.7087 7.30954 10.4522 7.63193 8.19814 7.73194C7.87488 7.7463 7.62439 8.01999 7.63875 8.34331C7.6531 8.66657 7.92709 8.91665 8.25006 8.90271C10.5613 8.80017 12.8466 8.47362 15.0567 8.15786C19.6987 7.49458 24.0912 6.86698 28.8281 8.01542V21.6632C23.9654 20.5526 19.3557 21.2113 14.8908 21.8493C10.4717 22.4806 5.90625 23.1328 1.17187 21.974V8.32702C1.72939 8.45593 2.29729 8.56462 2.86805 8.65169C3.18773 8.70062 3.48686 8.48066 3.53561 8.16079C3.58441 7.84087 3.36463 7.54198 3.04471 7.49323C2.26236 7.37394 1.48617 7.21175 0.737578 7.01118C0.561797 6.96396 0.373828 7.0014 0.229219 7.11232C0.0847265 7.22318 0 7.39497 0 7.57714V22.4286C0 22.6938 0.178125 22.9259 0.434297 22.9946C2.60215 23.5755 4.71715 23.7868 6.79055 23.7868C9.61559 23.7868 12.3629 23.3942 15.0567 23.0093C19.841 22.3257 24.3599 21.68 29.2642 22.9774C29.44 23.0239 29.6274 22.9861 29.7715 22.8752C29.9156 22.7643 29.9999 22.5928 29.9999 22.4109V7.55944C30 7.29355 29.8209 7.06099 29.5639 6.99296Z" fill="white"/>
<path style="fill: #E15050" d="M2.34375 12.7816V18.2013C2.34375 18.5249 2.60607 18.7873 2.92969 18.7873C3.89895 18.7873 4.6875 19.5758 4.6875 20.5451C4.6875 20.6108 4.68369 20.6781 4.67613 20.7451C4.65814 20.9048 4.70654 21.0648 4.80996 21.1877C4.91338 21.3107 5.06268 21.3858 5.22305 21.3955C5.74318 21.427 6.26285 21.4413 6.78234 21.4412C9.46395 21.4412 12.1318 21.0601 14.7253 20.6895C16.2202 20.4758 17.81 20.2546 19.3658 20.1027C19.6879 20.0712 19.9235 19.7846 19.892 19.4626C19.8605 19.1406 19.5746 18.9051 19.2519 18.9364C17.6721 19.0906 16.0675 19.3139 14.5594 19.5294C11.7021 19.9377 8.75373 20.3588 5.84484 20.2525C5.71699 18.9696 4.75793 17.9275 3.51562 17.6742V13.3099C4.58385 13.0963 5.44189 12.3077 5.74336 11.2604C8.88779 11.3607 11.9813 10.9652 15.3882 10.4784C18.402 10.0478 21.2586 9.63972 24.1555 9.74519C24.2849 11.0263 25.2432 12.0666 26.4844 12.3196V16.685C25.2342 16.9349 24.2725 17.9715 24.1529 19.2897C24.1237 19.612 24.3613 19.8969 24.6836 19.9262C25.006 19.9554 25.2908 19.7178 25.32 19.3955C25.4025 18.4855 26.155 17.7993 27.0703 17.7993C27.3939 17.7993 27.6562 17.5369 27.6562 17.2133V11.7926C27.6562 11.469 27.3939 11.2066 27.0703 11.2066C26.1011 11.2066 25.3125 10.4181 25.3125 9.44882C25.3125 9.3839 25.3162 9.31763 25.3236 9.25177C25.3414 9.09204 25.2929 8.93208 25.1894 8.80921C25.0859 8.68634 24.9364 8.61134 24.776 8.60179C21.571 8.41118 18.3437 8.87231 15.2225 9.31833C11.6925 9.82271 8.50898 10.2275 5.29207 10.0693C4.97854 10.0546 4.70848 10.2885 4.67982 10.6011C4.5965 11.5102 3.8441 12.1958 2.92963 12.1958C2.60607 12.1957 2.34375 12.458 2.34375 12.7816Z" fill="white"/>
<path style="fill: #E15050" d="M5.54595 8.90929C5.55926 8.91017 5.57238 8.91064 5.58551 8.91064C5.89131 8.91064 6.14894 8.67328 6.16957 8.36367C6.19113 8.04082 5.94679 7.76162 5.62388 7.74006H5.62347C5.30051 7.71879 5.0216 7.96289 5.0001 8.28574C4.97859 8.60859 5.2231 8.88779 5.54595 8.90929Z" fill="white"/>
<path style="fill: #E15050" d="M21.9412 18.7485C21.6176 18.7485 21.3555 19.0109 21.3555 19.3345C21.3555 19.6581 21.618 19.9204 21.9416 19.9204C22.2652 19.9204 22.5275 19.6581 22.5275 19.3345C22.5275 19.0109 22.2651 18.7485 21.9416 18.7485H21.9412Z" fill="white"/>
</svg>
