<svg width="25" height="21" viewBox="0 0 25 21" fill="none" xmlns="http://www.w3.org/2000/svg">
<g clip-path="url(#clip0)">
<path d="M20.7448 11.4005C20.3406 10.9717 20.4562 10.781 20.7448 10.3977C20.75 10.3934 24.0865 6.5206 24.4302 5.20723L24.4323 5.20635C24.6031 4.72773 24.4323 4.37598 23.6062 4.37598H20.8729C20.1771 4.37598 19.8562 4.67785 19.6844 5.0156C19.6844 5.0156 18.2927 7.81385 16.324 9.62773C15.6885 10.1519 15.3948 10.3199 15.0479 10.3199C14.8771 10.3199 14.6115 10.1519 14.6115 9.67323V5.20635C14.6115 4.63235 14.4167 4.37598 13.8406 4.37598H9.54271C9.10625 4.37598 8.84687 4.64373 8.84687 4.8931C8.84687 5.43735 9.83125 5.56248 9.93333 7.09373V10.4161C9.93333 11.1441 9.77604 11.278 9.42708 11.278C8.49792 11.278 6.24271 8.46835 4.90625 5.25273C4.63646 4.62885 4.37292 4.37685 3.67188 4.37685H0.9375C0.157292 4.37685 0 4.67873 0 5.01648C0 5.61323 0.929166 8.58035 4.32083 12.5004C6.58125 15.1761 9.76458 16.626 12.6604 16.626C14.401 16.626 14.6135 16.304 14.6135 15.7501C14.6135 13.1934 14.4562 12.9519 15.3281 12.9519C15.7323 12.9519 16.4281 13.1199 18.0531 14.4105C19.9104 15.9409 20.2156 16.626 21.2552 16.626H23.9885C24.7677 16.626 25.1625 16.304 24.9354 15.6687C24.4156 14.3326 20.9031 11.5842 20.7448 11.4005Z" fill="#262626"/>
</g>
<defs>
<clipPath id="clip0">
<rect width="25" height="21" fill="white"/>
</clipPath>
</defs>
</svg>
