<svg width="25" height="25" viewBox="0 0 25 25" fill="none" xmlns="http://www.w3.org/2000/svg">
<g clip-path="url(#clip0)">
<path d="M11.8934 0.0144578C5.29089 0.32883 0.0806141 5.82741 0.100643 12.4374C0.106742 14.4506 0.592769 16.3508 1.45015 18.0298L0.133767 24.4197C0.0625577 24.7653 0.374299 25.068 0.717669 24.9867L6.97898 23.5032C8.58762 24.3045 10.3944 24.7673 12.3067 24.7965C19.055 24.8996 24.682 19.5412 24.8923 12.7954C25.1178 5.56428 19.1498 -0.331124 11.8934 0.0144578ZM19.3645 19.2639C17.5308 21.0976 15.0928 22.1074 12.4996 22.1074C10.9812 22.1074 9.52744 21.7668 8.17866 21.0949L7.30669 20.6605L3.46786 21.5701L4.27591 17.6475L3.84632 16.8062C3.14613 15.435 2.7911 13.9521 2.7911 12.399C2.7911 9.80573 3.80094 7.36776 5.63462 5.53403C7.45192 3.71673 9.92971 2.69045 12.4997 2.69045C15.0929 2.69051 17.5308 3.70035 19.3645 5.53397C21.1982 7.36764 22.208 9.80561 22.2081 12.3988C22.208 14.9689 21.1818 17.4467 19.3645 19.2639Z" fill="#262626"/>
<path d="M18.5166 15.0879L16.1149 14.3982C15.7992 14.3076 15.4592 14.3972 15.2291 14.6316L14.6418 15.23C14.3942 15.4823 14.0184 15.5634 13.6906 15.4307C12.5545 14.971 10.1646 12.8461 9.55427 11.7832C9.37819 11.4766 9.40731 11.0933 9.62351 10.8135L10.1363 10.1502C10.3372 9.89025 10.3795 9.5412 10.2467 9.24076L9.23625 6.95544C8.99423 6.40807 8.29475 6.24873 7.83778 6.63521C7.16748 7.20213 6.37217 8.06363 6.27549 9.01805C6.10503 10.7008 6.82668 12.822 9.55565 15.369C12.7083 18.3115 15.233 18.7003 16.8768 18.3021C17.8091 18.0762 18.5542 17.1709 19.0245 16.4296C19.3451 15.9242 19.0919 15.2531 18.5166 15.0879Z" fill="#262626"/>
</g>
<defs>
<clipPath id="clip0">
<rect width="25" height="25" fill="white"/>
</clipPath>
</defs>
</svg>
