<svg width="20" height="30" viewBox="0 0 20 30" fill="none" xmlns="http://www.w3.org/2000/svg">
<path d="M10.4419 29.8169L19.8169 20.4419C20.061 20.1977 20.061 19.8022 19.8169 19.5581C19.5727 19.314 19.1772 19.314 18.9331 19.5581L10.625 27.8662L10.625 0.625019C10.625 0.27955 10.3454 -4.22014e-07 9.99997 -4.37115e-07C9.6545 -4.52216e-07 9.37495 0.27955 9.37495 0.625019L9.37495 27.8662L1.06689 19.5581C0.822732 19.314 0.427226 19.314 0.183126 19.5581C0.0610744 19.6802 2.01136e-05 19.8401 2.01066e-05 20C2.00996e-05 20.1599 0.0610743 20.3198 0.183126 20.4419L9.55812 29.8169C9.80222 30.061 10.1977 30.061 10.4419 29.8169Z" fill="#E15050"/>
</svg>
