<?xml version="1.0" encoding="utf-8"?>
<!-- Generator: Adobe Illustrator 22.1.0, SVG Export Plug-In . SVG Version: 6.00 Build 0)  -->
<svg version="1.1" id="Слой_1" xmlns="http://www.w3.org/2000/svg" xmlns:xlink="http://www.w3.org/1999/xlink" x="0px" y="0px"
	 viewBox="0 0 20 30" style="enable-background:new 0 0 20 30;" xml:space="preserve">
<style type="text/css">
	.st0{fill:#E15050;}
</style>
<path class="st0" d="M9.6,0.2L0.2,9.6c-0.2,0.2-0.2,0.6,0,0.9c0.2,0.2,0.6,0.2,0.9,0l8.3-8.3v27.2c0,0.3,0.3,0.6,0.6,0.6
	c0.3,0,0.6-0.3,0.6-0.6V2.1l8.3,8.3c0.2,0.2,0.6,0.2,0.9,0c0.1-0.1,0.2-0.3,0.2-0.4s-0.1-0.3-0.2-0.4l-9.4-9.4
	C10.2-0.1,9.8-0.1,9.6,0.2z"/>
</svg>
